<?xml version="1.0" standalone="no"?>
<!DOCTYPE svg PUBLIC "-//W3C//DTD SVG 20010904//EN"
 "http://www.w3.org/TR/2001/REC-SVG-20010904/DTD/svg10.dtd">
<svg version="1.0" xmlns="http://www.w3.org/2000/svg"
 width="128.000000pt" height="128.000000pt" viewBox="0 0 128.000000 128.000000"
 preserveAspectRatio="xMidYMid meet">

<g transform="translate(0.000000,128.000000) scale(0.100000,-0.100000)"
fill="#ffffff" stroke="none">
<path d="M568 1079 l-54 -61 -54 16 c-113 34 -140 15 -140 -96 l0 -67 -57 -21
c-76 -28 -103 -46 -103 -70 0 -10 18 -48 40 -83 l41 -65 -41 -63 c-22 -34 -40
-70 -40 -79 0 -25 27 -44 98 -70 l62 -22 0 -48 c0 -72 10 -110 34 -126 19 -12
31 -11 92 6 l69 21 55 -61 c35 -38 63 -60 77 -60 13 0 41 22 75 60 l53 60 55
-15 c115 -31 140 -14 140 96 l0 66 58 22 c117 45 124 61 62 157 l-41 62 41 62
c22 35 40 71 40 80 0 25 -28 45 -97 70 l-63 23 0 41 c0 73 -12 117 -34 132
-19 12 -31 11 -92 -6 l-69 -20 -55 60 c-35 39 -63 60 -77 60 -13 0 -41 -22
-75 -61z m131 -196 c0 -10 -8 -60 -18 -110 l-18 -93 59 0 c36 0 58 -4 58 -11
0 -22 -164 -299 -177 -299 -17 0 -16 15 6 128 l18 92 -59 0 c-36 0 -58 4 -58
11 0 6 37 76 82 155 75 132 109 172 107 127z"/>
</g>
</svg>
